<svg width="144" height="144" viewBox="0 0 144 144" fill="none" xmlns="http://www.w3.org/2000/svg">
<path d="M71.62 143.24C111.175 143.24 143.24 111.175 143.24 71.62C143.24 32.0654 111.175 0 71.62 0C32.0654 0 0 32.0654 0 71.62C0 111.175 32.0654 143.24 71.62 143.24Z" fill="#2563EB"/>
<mask id="mask0_562_72" style="mask-type:luminance" maskUnits="userSpaceOnUse" x="0" y="0" width="144" height="144">
<path d="M71.62 143.24C111.175 143.24 143.24 111.175 143.24 71.62C143.24 32.0654 111.175 0 71.62 0C32.0654 0 0 32.0654 0 71.62C0 111.175 32.0654 143.24 71.62 143.24Z" fill="white"/>
</mask>
<g mask="url(#mask0_562_72)">
<path d="M48.7305 97.6298L100.79 132.51L129.09 154.17L167.86 100.67L121.73 70.1998L88.2305 46.5098L58.2605 53.2298L48.7305 97.6298Z" fill="#2861C6"/>
<path d="M96.26 82.8906C96.26 92.8306 90.23 97.7706 78.25 97.7706H48.5V44.1406H75.28C87.42 44.1406 93.91 48.6806 94.62 57.6806C95.09 64.2606 91.02 68.8006 86.71 69.4206V69.9706C92.35 70.9906 96.26 76.3106 96.26 82.8906ZM76.06 64.9706C78.64 64.9706 80.6 63.3306 80.6 60.8206C80.6 58.3106 78.64 56.5906 76.06 56.5906H63.69V64.9706H76.06ZM76.61 85.4006C80.13 85.4006 81.86 84.0706 81.86 81.3306C81.86 78.5906 80.14 77.2606 76.61 77.2606H63.69V85.4006H76.61Z" fill="white"/>
</g>
</svg>
