<svg width="144" height="144" viewBox="0 0 144 144" fill="none" xmlns="http://www.w3.org/2000/svg">
<path d="M71.62 143.24C111.175 143.24 143.24 111.175 143.24 71.62C143.24 32.0654 111.175 0 71.62 0C32.0654 0 0 32.0654 0 71.62C0 111.175 32.0654 143.24 71.62 143.24Z" fill="#2563EB"/>
<mask id="mask0_562_61" style="mask-type:luminance" maskUnits="userSpaceOnUse" x="0" y="0" width="144" height="144">
<path d="M71.62 143.24C111.175 143.24 143.24 111.175 143.24 71.62C143.24 32.0654 111.175 0 71.62 0C32.0654 0 0 32.0654 0 71.62C0 111.175 32.0654 143.24 71.62 143.24Z" fill="white"/>
</mask>
<g mask="url(#mask0_562_61)">
<path d="M54.4102 102.2L98.6202 137.28L126.93 158.94L161.22 101.32L115.09 70.8499L81.5802 47.1699L71.4802 91.3599L54.4102 102.2Z" fill="#2861C6"/>
<path d="M65.8714 59.4816H54.4514V46.6016H81.8214V89.1216H92.8314V102.002H54.4414V89.1216H65.8614V59.4816H65.8714Z" fill="white"/>
<path d="M85.4025 38.8609H81.6225V42.7009H76.8125V38.8609H73.0625V34.1109H76.8125V30.1309H81.6225V34.1109H85.4025V38.8609Z" fill="white"/>
<path d="M100.52 38.8609H96.7397V42.7009H91.9297V38.8609H88.1797V34.1109H91.9297V30.1309H96.7397V34.1109H100.52V38.8609Z" fill="white"/>
</g>
</svg>
