<svg width="32" height="32" viewBox="0 0 32 32" fill="none" xmlns="http://www.w3.org/2000/svg">
<path d="M15.75 31.5C24.4485 31.5 31.5 24.4485 31.5 15.75C31.5 7.05152 24.4485 0 15.75 0C7.05152 0 0 7.05152 0 15.75C0 24.4485 7.05152 31.5 15.75 31.5Z" fill="#2563EB"/>
<path d="M22.3408 11.5402L22.3108 11.5102L19.6608 8.86023C19.6608 8.86023 19.6208 8.82024 19.6008 8.81024C19.6008 8.81024 19.5908 8.81023 19.5808 8.80023C19.5608 8.79023 19.5408 8.78023 19.5308 8.77023C19.5308 8.77023 19.5208 8.77023 19.5108 8.77023C19.4608 8.75023 19.4108 8.74023 19.3508 8.74023H12.6508C12.4008 8.74023 12.1908 8.95023 12.1908 9.20023V13.0202C12.4308 13.0902 12.6508 13.2102 12.8308 13.3902L13.1108 13.6702V9.65024H18.8908V11.8702C18.8908 12.1202 19.1008 12.3302 19.3508 12.3302H21.5708V19.1202H19.0708V16.0302C19.0708 15.7802 18.8608 15.5702 18.6108 15.5702H13.6108L12.1208 14.0802C12.0308 13.9902 11.9208 13.9502 11.8008 13.9502H9.51079C9.26079 13.9502 9.05078 14.1602 9.05078 14.4102V22.3402C9.05078 22.5902 9.26079 22.8002 9.51079 22.8002H18.6108C18.8608 22.8002 19.0708 22.5902 19.0708 22.3402V20.0402H22.0308C22.2808 20.0402 22.4908 19.8302 22.4908 19.5802V11.9002C22.4908 11.9002 22.4908 11.8802 22.4908 11.8702C22.4908 11.7402 22.4408 11.6302 22.3608 11.5502L22.3408 11.5402Z" fill="white"/>
</svg>
