<svg width="32" height="32" viewBox="0 0 32 32" fill="none" xmlns="http://www.w3.org/2000/svg">
<path d="M15.75 31.5C24.4485 31.5 31.5 24.4485 31.5 15.75C31.5 7.05152 24.4485 0 15.75 0C7.05152 0 0 7.05152 0 15.75C0 24.4485 7.05152 31.5 15.75 31.5Z" fill="#2563EB"/>
<path d="M17.7603 12.7591L15.7103 14.8091L14.9503 14.0491C14.6803 13.7791 14.2403 13.7791 13.9603 14.0491C13.6903 14.3191 13.6903 14.7591 13.9603 15.0391L15.2103 16.2891C15.3503 16.4291 15.5203 16.4892 15.7003 16.4892C15.8803 16.4892 16.0603 16.4191 16.1903 16.2891L18.7303 13.7491C19.0003 13.4791 19.0003 13.0391 18.7303 12.7591C18.4603 12.4891 18.0203 12.4891 17.7403 12.7591H17.7603Z" fill="white"/>
<path d="M22.3192 15.8494C22.3192 14.9194 22.1192 14.0294 21.7692 13.2294C22.6992 12.1594 22.5892 10.5293 21.5292 9.58934C20.5092 8.68934 18.9692 8.73937 18.0092 9.67937C17.3092 9.41937 16.5492 9.27935 15.7492 9.27935C14.9492 9.27935 14.1992 9.41937 13.4892 9.67937C12.5292 8.73937 10.9892 8.68934 9.96917 9.58934C8.89917 10.5293 8.79916 12.1494 9.72916 13.2294C9.37916 14.0294 9.17916 14.9194 9.17916 15.8494C9.17916 17.7294 9.97917 19.4294 11.2492 20.6294C10.6692 21.4794 10.4292 22.2894 10.7192 22.5094C11.0092 22.7294 11.7192 22.2794 12.3892 21.4894C13.3792 22.0794 14.5292 22.4194 15.7592 22.4194C16.9892 22.4194 18.1392 22.0794 19.1292 21.4894C19.7892 22.2794 20.5092 22.7294 20.7992 22.5094C21.0892 22.2894 20.8492 21.4794 20.2692 20.6294C21.5392 19.4294 22.3392 17.7294 22.3392 15.8494H22.3192ZM16.2392 21.1394V20.5794C16.2392 20.3094 16.0192 20.0893 15.7492 20.0893C15.4792 20.0893 15.2592 20.3094 15.2592 20.5794V21.1394C12.7192 20.9094 10.6892 18.8794 10.4492 16.3294H11.0092C11.2792 16.3294 11.4992 16.1093 11.4992 15.8393C11.4992 15.5693 11.2792 15.3494 11.0092 15.3494H10.4492C10.6792 12.8094 12.7092 10.7794 15.2592 10.5394V11.0994C15.2592 11.3694 15.4792 11.5893 15.7492 11.5893C16.0192 11.5893 16.2392 11.3694 16.2392 11.0994V10.5394C18.7792 10.7694 20.8092 12.7994 21.0492 15.3494H20.4892C20.2192 15.3494 19.9992 15.5693 19.9992 15.8393C19.9992 16.1093 20.2192 16.3294 20.4892 16.3294H21.0492C20.8192 18.8694 18.7892 20.9094 16.2392 21.1394Z" fill="white"/>
</svg>
