<svg width="32" height="32" viewBox="0 0 32 32" fill="none" xmlns="http://www.w3.org/2000/svg">
<path d="M15.75 31.5C24.4485 31.5 31.5 24.4485 31.5 15.75C31.5 7.05152 24.4485 0 15.75 0C7.05152 0 0 7.05152 0 15.75C0 24.4485 7.05152 31.5 15.75 31.5Z" fill="#2563EB"/>
<mask id="mask0_562_22" style="mask-type:luminance" maskUnits="userSpaceOnUse" x="0" y="0" width="32" height="32">
<path d="M15.75 31.5C24.4485 31.5 31.5 24.4485 31.5 15.75C31.5 7.05152 24.4485 0 15.75 0C7.05152 0 0 7.05152 0 15.75C0 24.4485 7.05152 31.5 15.75 31.5Z" fill="white"/>
</mask>
<g mask="url(#mask0_562_22)">
<path d="M25.1816 6.76953H22.8016L16.0616 15.3895L11.9416 10.6095L0.101562 27.7695V31.8495H2.83157L12.3416 18.0595L16.2416 22.5695L25.1816 11.1295V6.76953Z" fill="white"/>
</g>
</svg>
