<svg width="32" height="32" viewBox="0 0 32 32" fill="none" xmlns="http://www.w3.org/2000/svg">
<path d="M15.75 31.5C24.4485 31.5 31.5 24.4485 31.5 15.75C31.5 7.05152 24.4485 0 15.75 0C7.05152 0 0 7.05152 0 15.75C0 24.4485 7.05152 31.5 15.75 31.5Z" fill="#2563EB"/>
<path d="M16.6006 8.47016L17.9306 12.5701C18.0506 12.9401 18.4006 13.1902 18.7906 13.1902H23.1006C23.9706 13.1902 24.3306 14.3101 23.6306 14.8201L20.1406 17.3502C19.8206 17.5802 19.6906 17.9902 19.8106 18.3602L21.1406 22.4601C21.4106 23.2901 20.4606 23.9802 19.7606 23.4702L16.2706 20.9402C15.9506 20.7102 15.5306 20.7102 15.2106 20.9402L11.7206 23.4702C11.0106 23.9802 10.0706 23.2901 10.3406 22.4601L11.6706 18.3602C11.7906 17.9902 11.6606 17.5802 11.3406 17.3502L7.85057 14.8201C7.14057 14.3101 7.51057 13.1902 8.38057 13.1902H12.6906C13.0806 13.1902 13.4306 12.9401 13.5506 12.5701L14.8806 8.47016C15.1506 7.64016 16.3206 7.64016 16.5906 8.47016H16.6006Z" fill="white"/>
</svg>
